<svg width="1690" height="1410" viewBox="0 0 1690 1410" fill="none" xmlns="http://www.w3.org/2000/svg">
<g clip-path="url(#clip0_186_23)">
<path d="M156.028 1410L156.028 1347.6L216.491 1347.6L156.028 1191.6L71.1816 1410L-1.9596e-08 1410L124.818 1098.01L187.227 1098.01L312.056 1410L156.028 1410Z" fill="#3D3D3D"/>
<path d="M686.531 1410L374.465 1410L374.465 1098.01L436.885 1098.01L436.885 1347.6L686.531 1347.6L686.531 1410Z" fill="#3D3D3D"/>
<path d="M1061 1129.2C1061 1133.3 1060.19 1137.35 1058.62 1141.14C1057.06 1144.93 1054.76 1148.37 1051.86 1151.26C1048.96 1154.16 1045.53 1156.46 1041.74 1158.03C1037.95 1159.6 1033.9 1160.4 1029.8 1160.4L780.15 1160.4C771.873 1160.4 763.935 1157.12 758.082 1151.26C752.229 1145.41 748.941 1137.48 748.941 1129.2C748.941 1125.1 749.748 1121.05 751.316 1117.26C752.885 1113.48 755.184 1110.04 758.082 1107.14C760.981 1104.24 764.421 1101.95 768.208 1100.38C771.994 1098.81 776.052 1098.01 780.15 1098.01L1029.8 1098.01C1033.89 1098.01 1037.95 1098.81 1041.74 1100.38C1045.52 1101.95 1048.96 1104.24 1051.86 1107.14C1054.76 1110.04 1057.06 1113.48 1058.62 1117.26C1060.19 1121.05 1061 1125.1 1061 1129.2ZM780.15 1222.8L1029.8 1222.8C1033.9 1222.8 1037.95 1223.61 1041.74 1225.18C1045.53 1226.74 1048.96 1229.04 1051.86 1231.94C1054.76 1234.84 1057.06 1238.28 1058.62 1242.06C1060.19 1245.85 1061 1249.91 1061 1254C1061 1258.1 1060.19 1262.16 1058.62 1265.94C1057.05 1269.73 1054.76 1273.16 1051.86 1276.06C1048.96 1278.96 1045.52 1281.25 1041.74 1282.82C1037.95 1284.39 1033.89 1285.2 1029.8 1285.2L842.559 1285.2C838.461 1285.2 834.402 1286 830.616 1287.57C826.829 1289.14 823.389 1291.44 820.491 1294.34C817.593 1297.23 815.294 1300.67 813.725 1304.46C812.157 1308.24 811.349 1312.3 811.349 1316.4C811.349 1324.68 814.638 1332.61 820.491 1338.46C826.344 1344.32 834.282 1347.6 842.559 1347.6L1029.8 1347.6C1033.89 1347.6 1037.95 1348.41 1041.74 1349.98C1045.52 1351.54 1048.96 1353.84 1051.86 1356.74C1054.76 1359.63 1057.06 1363.07 1058.62 1366.86C1060.19 1370.64 1061 1374.7 1061 1378.8C1061 1382.89 1060.19 1386.95 1058.62 1390.74C1057.06 1394.52 1054.76 1397.96 1051.86 1400.86C1048.96 1403.76 1045.53 1406.06 1041.74 1407.62C1037.95 1409.19 1033.9 1410 1029.8 1410L780.15 1410C771.873 1410 763.935 1406.71 758.082 1400.86C752.229 1395.01 748.941 1387.07 748.941 1378.8L748.941 1254C748.941 1245.73 752.229 1237.79 758.082 1231.94C763.935 1226.09 771.873 1222.8 780.15 1222.8Z" fill="#3D3D3D"/>
<path d="M1435.47 1098.01L1310.61 1410L1248.19 1410L1123.37 1098.01L1193.59 1098.01L1279.4 1316.4L1365.21 1098.01L1435.47 1098.01Z" fill="#3D3D3D"/>
<path d="M1533.96 1410L1533.96 1347.6L1594.42 1347.6L1533.96 1191.6L1449.13 1410L1377.93 1410L1502.76 1098.01L1565.17 1098.01L1690 1410L1533.96 1410Z" fill="#3D3D3D"/>
</g>
<defs>
<clipPath id="clip0_186_23">
<rect width="1690" height="1410" fill="white"/>
</clipPath>
</defs>
</svg>
